<svg width="28" height="24" viewBox="0 0 28 24" fill="none" xmlns="http://www.w3.org/2000/svg">
<path d="M27.5493 3.54133C26.5314 3.99159 25.452 4.28729 24.3467 4.41866C25.5117 3.72191 26.3836 2.62535 26.8 1.33333C25.7067 1.98399 24.508 2.43999 23.2587 2.68666C22.4195 1.78877 21.3072 1.19328 20.0946 0.992773C18.8821 0.792269 17.6373 0.997982 16.5537 1.57793C15.4701 2.15788 14.6085 3.07957 14.1028 4.19972C13.5971 5.31986 13.4757 6.5757 13.7573 7.772C11.5402 7.66087 9.37112 7.08469 7.39106 6.08088C5.411 5.07707 3.66418 3.66806 2.26401 1.94533C1.7684 2.79659 1.50795 3.7643 1.50934 4.74933C1.50934 6.68266 2.49334 8.39066 3.98934 9.39066C3.10402 9.36279 2.23819 9.1237 1.46401 8.69333V8.76266C1.46428 10.0503 1.90983 11.2981 2.72514 12.2947C3.54044 13.2913 4.67532 13.9753 5.93734 14.2307C5.1155 14.4534 4.25375 14.4862 3.41734 14.3267C3.77317 15.435 4.46668 16.4043 5.4008 17.0988C6.33491 17.7934 7.46285 18.1784 8.62668 18.2C7.46998 19.1084 6.14558 19.78 4.72918 20.1762C3.31279 20.5725 1.83218 20.6857 0.372009 20.5093C2.92094 22.1486 5.88814 23.0188 8.91868 23.016C19.176 23.016 24.7853 14.5187 24.7853 7.14933C24.7853 6.90933 24.7787 6.66666 24.768 6.42933C25.8598 5.64022 26.8021 4.66269 27.5507 3.54266L27.5493 3.54133Z" fill="#6B6B6B"/>
</svg>
